<?xml version="1.0" encoding="UTF-8"?>
<svg id="a" xmlns="http://www.w3.org/2000/svg" width="937.32" height="456.4" viewBox="0 0 937.32 456.4">
    <path d="M158.55,330.64c-2.91,0-5.86-.15-8.77-.45-21.97-2.25-41.77-12.67-55.76-29.33-13.99-16.66-20.49-37.58-18.31-58.9,4.19-40.96,39.29-71.85,81.64-71.85,2.91,0,5.86.15,8.77.45,21.97,2.25,41.77,12.67,55.76,29.33,13.99,16.66,20.49,37.58,18.31,58.9-4.19,40.96-39.29,71.85-81.64,71.85Z"
          fill="#fff" stroke-width="0"/>
    <path d="M157.36,169.61v1c2.89,0,5.82.15,8.71.45,21.84,2.23,41.53,12.59,55.43,29.16,13.9,16.56,20.36,37.35,18.19,58.53-2.02,19.71-11.45,37.85-26.57,51.06-15.02,13.12-34.4,20.35-54.57,20.35-2.89,0-5.82-.15-8.72-.45-45.07-4.61-78.1-43.95-73.62-87.69,2.02-19.71,11.45-37.85,26.57-51.06,15.02-13.12,34.4-20.35,54.57-20.35v-1M157.35,169.61c-42,0-77.89,30.82-82.13,72.3-4.54,44.36,28.82,84.11,74.52,88.78,2.96.3,5.9.45,8.82.45,42,0,77.89-30.82,82.13-72.3,4.54-44.36-28.82-84.11-74.52-88.78-2.96-.3-5.9-.45-8.82-.45h0Z"
          fill="#fff" stroke-width="0"/>
    <path d="M27.48,100.95c-1.76,5.95-7.47,25.25,2.89,40.5,8.12,11.94,21.86,15.18,31.4,17.29,29.5,6.5,39.56-6.56,80.22-7.88,16.09-.52,32.32-.89,51.63,6.29,8.81,3.27,32.42,12.36,49.47,37.23,18.79,27.41,17.16,55.8,16.57,64.02-2.02,27.97-14.9,47.39-20.72,55.18-7.26,7.56-24.69,23.63-52.41,30.83-9.4,2.44-37.07,9.62-64.07-2.53-19.95-8.98-22.43-20.83-48.19-30.06-9.59-3.44-18.83-6.75-30.64-5.14-18.95,2.58-40.93,17.35-42.97,36.82-2.06,19.64,17.18,34.99,28.66,44.15,18.08,14.43,42.11,25.19,83.42,29.64,37.05,3.99,118.68,12.79,170.53-35.83,8.16-7.65,25.95-24.34,32.36-50.97,3.39-14.11,2.28-28.66,1.39-43.08-1.39-22.66-4.8-26.4-3.95-42.99.39-7.61,1.2-23.59,9-39,11.8-23.32,33.76-33.82,45-39,26.83-12.38,43.57-9.44,103.19-11.1,85.53-2.38,98.58-9.75,106.51-19.26,13.5-16.2,15.25-42.35,6.16-60.43-14.6-29.02-55.31-33.52-97.87-38.21-19.12-2.11-50.22-.76-112.41,1.94-26.19,1.14-41.37,1.94-69.44,2.46-26.57.49-35.53-.22-93.8.36-42.89.43-51.24.42-60.4.86-63.34,2.99-78.27,10.59-86.01,15.33-7.3,4.46-28.13,17.63-35.52,42.61Z"
          fill="#fff" stroke="#000" stroke-miterlimit="10"/>
    <path d="M780.07,286.25c-2.9,0-5.84-.15-8.75-.45-45.35-4.63-78.58-44.2-74.09-88.22,4.18-40.98,39.28-71.87,81.64-71.87,2.9,0,5.84.15,8.75.45,21.97,2.24,41.78,12.66,55.77,29.32,13.99,16.66,20.5,37.58,18.32,58.9-4.18,40.98-39.28,71.87-81.64,71.87Z"
          fill="#fff" stroke-width="0"/>
    <path d="M778.88,125.22v1c2.88,0,5.8.15,8.69.44,45.07,4.6,78.11,43.93,73.65,87.67-2.01,19.72-11.45,37.85-26.57,51.07-15.02,13.13-34.4,20.36-54.58,20.36-2.88,0-5.81-.15-8.7-.44-21.84-2.23-41.53-12.58-55.44-29.15-13.9-16.56-20.37-37.34-18.21-58.52,2.01-19.72,11.45-37.85,26.57-51.07,15.02-13.13,34.4-20.36,54.58-20.36v-1M778.87,125.22c-42.01,0-77.9,30.84-82.14,72.32-4.53,44.36,28.84,84.1,74.54,88.76,2.96.3,5.89.45,8.8.45,42.01,0,77.9-30.84,82.14-72.32,4.53-44.36-28.84-84.1-74.54-88.76-2.96-.3-5.89-.45-8.8-.45h0Z"
          fill="#fff" stroke-width="0"/>
    <path d="M909.98,355.38c1.76-5.95,7.47-25.25-2.9-40.5-8.12-11.94-21.87-15.18-31.41-17.28-29.5-6.5-39.56,6.57-80.22,7.9-16.09.52-32.32.89-51.63-6.28-8.81-3.27-32.42-12.36-49.48-37.22-18.8-27.4-17.18-55.8-16.59-64.02,2.01-27.97,14.89-47.39,20.71-55.18,7.25-7.56,24.69-23.64,52.4-30.84,9.4-2.44,37.07-9.63,64.08,2.52,23.33,10.5,22.46,21,48.2,30.05,11.23,3.95,32.04,11.26,50.9.86,10.36-5.72,21.72-17.65,22.7-32.55,1.34-20.42-17.57-35.29-28.67-44.14-18.09-14.42-42.11-25.18-83.42-29.62-37.06-3.99-118.68-12.76-170.52,35.87-8.16,7.65-25.95,24.34-32.34,50.98-3.39,14.11-2.27,28.66-1.38,43.08,1.39,22.66,4.8,26.39,3.96,42.99-.39,7.61-1.19,23.59-8.99,39-11.8,23.32-33.75,33.82-44.99,39.01-26.83,12.38-43.56,9.45-103.19,11.13-85.53,2.4-98.58,9.77-106.51,19.28-13.5,16.2-15.24,42.36-6.15,60.43,14.61,29.02,55.32,33.5,97.87,38.19,19.12,2.11,50.22.75,112.41-1.97,26.19-1.14,41.37-1.95,69.44-2.47,26.57-.5,35.53.21,93.8-.38,42.89-.44,51.24-.44,60.4-.87,63.34-3.01,78.26-10.61,86-15.35,7.3-4.47,28.13-17.63,35.51-42.61Z"
          fill="#fff" stroke="#000" stroke-miterlimit="10"/>
</svg>